# Blender 4.0.2
# www.blender.org
mtllib barrier2.mtl
o å¹³é¢
v -1.992404 -0.103125 0.983118
v 1.992404 -0.103125 0.983118
v -1.992404 -0.103125 -0.983118
v 1.992404 -0.103125 -0.983118
v 0.000000 0.110305 1.013113
v 0.000000 0.110305 -1.013113
v 1.007596 0.068833 1.007285
v 1.007596 0.068833 -1.007285
v -1.007596 0.068833 -1.007285
v -1.007596 0.068833 1.007285
v -1.992404 -0.027757 0.000000
v 1.992404 -0.027757 0.000000
v 0.000000 0.187771 0.000000
v 1.007596 0.145891 0.000000
v -1.007596 0.145891 0.000000
v -1.992404 -0.027757 0.500000
v 1.992404 -0.027757 0.500000
v 0.000000 0.187771 0.500000
v 1.007596 0.145891 0.500000
v -1.007596 0.145891 0.500000
v 1.992404 -0.027757 -0.500000
v 0.000000 0.187771 -0.500000
v 1.007596 0.145891 -0.500000
v -1.007596 0.145891 -0.500000
v -1.992404 -0.027757 -0.500000
v 1.992404 -0.068332 -0.735551
v 0.000000 0.145099 -0.765546
v 1.007596 0.103626 -0.759718
v -1.007596 0.103626 -0.759718
v -1.992404 -0.068332 -0.735551
v -1.992404 -0.068332 0.735551
v 1.992404 -0.068332 0.735551
v 0.000000 0.145099 0.765546
v 1.007596 0.103626 0.759718
v -1.007596 0.103626 0.759718
v -1.992404 -0.028954 0.735551
v -1.992404 -0.063747 0.983118
v 1.007596 0.108211 1.007285
v 1.992404 -0.063747 0.983118
v 1.992404 -0.028954 -0.735551
v 1.992404 -0.063747 -0.983118
v -1.007596 0.108211 -1.007285
v -1.992404 -0.063747 -0.983118
v -1.007596 0.108211 1.007285
v 0.000000 0.149683 1.013113
v 1.007596 0.108211 -1.007285
v 0.000000 0.149683 -1.013113
v 0.000000 0.184476 -0.765546
v 1.007596 0.143004 -0.759718
v -1.007596 0.143004 -0.759718
v -1.992404 0.011621 -0.500000
v -1.992404 0.011621 0.000000
v 1.992404 0.011621 0.500000
v 1.992404 0.011621 0.000000
v 0.000000 0.227149 0.500000
v 0.000000 0.227149 0.000000
v 1.007596 0.185269 0.500000
v 1.007596 0.185269 0.000000
v -1.007596 0.185269 0.500000
v -1.007596 0.185269 0.000000
v -1.992404 0.011621 0.500000
v 1.992404 -0.028954 0.735551
v 0.000000 0.184476 0.765546
v 1.007596 0.143004 0.759718
v -1.007596 0.143004 0.759718
v 1.992404 0.011621 -0.500000
v 0.000000 0.227149 -0.500000
v 1.007596 0.185269 -0.500000
v -1.007596 0.185269 -0.500000
v -1.992404 -0.028954 -0.735551
vn -0.1736 -0.9752 0.1371
vn 0.0415 -0.9894 0.1391
vn -0.0415 -0.9894 0.1391
vn 0.1736 -0.9752 0.1371
vn 0.1736 -0.9848 -0.0000
vn -0.0415 -0.9991 -0.0000
vn 0.0415 -0.9991 -0.0000
vn -0.1736 -0.9848 -0.0000
vn -0.1725 -0.9715 -0.1625
vn 0.0413 -0.9863 -0.1595
vn -0.0413 -0.9863 -0.1595
vn 0.1725 -0.9715 -0.1625
vn 0.1725 -0.9715 0.1625
vn -0.0413 -0.9863 0.1595
vn 0.0413 -0.9863 0.1595
vn -0.1725 -0.9715 0.1625
vn 0.1736 -0.9752 -0.1371
vn -0.0415 -0.9894 -0.1391
vn 0.0415 -0.9894 -0.1391
vn -0.1736 -0.9752 -0.1371
vn 0.1736 0.9752 -0.1371
vn -0.0415 0.9894 -0.1391
vn 0.0415 0.9894 -0.1391
vn -0.1736 0.9752 -0.1371
vn -0.1736 0.9848 -0.0000
vn 0.0415 0.9991 -0.0000
vn -0.0415 0.9991 -0.0000
vn 0.1736 0.9848 -0.0000
vn 0.1725 0.9715 0.1625
vn -0.0413 0.9863 0.1595
vn 0.0413 0.9863 0.1595
vn -0.1725 0.9715 0.1625
vn -0.1725 0.9715 -0.1625
vn 0.0413 0.9863 -0.1595
vn -0.0413 0.9863 -0.1595
vn 0.1725 0.9715 -0.1625
vn -0.1736 0.9752 0.1371
vn 0.0415 0.9894 0.1391
vn -0.0415 0.9894 0.1391
vn 0.1736 0.9752 0.1371
vn 0.0058 -0.0000 -1.0000
vn -1.0000 -0.0000 -0.0000
vn 1.0000 -0.0000 -0.0000
vn 0.0058 -0.0000 1.0000
vn 0.0245 -0.0000 -0.9997
vn 0.0245 -0.0000 0.9997
vn -0.0058 -0.0000 -1.0000
vn -0.0245 -0.0000 -0.9997
vn -0.0245 -0.0000 0.9997
vn -0.0058 -0.0000 1.0000
vt 0.750000 0.875000
vt 0.750000 1.000000
vt 1.000000 1.000000
vt 1.000000 0.875000
vt 0.250000 0.875000
vt 0.250000 1.000000
vt 0.500000 1.000000
vt 0.500000 0.875000
vt 0.000000 0.875000
vt 0.000000 1.000000
vt 0.000000 0.250000
vt 0.000000 0.500000
vt 0.250000 0.500000
vt 0.250000 0.250000
vt 0.500000 0.250000
vt 0.500000 0.500000
vt 0.750000 0.500000
vt 0.750000 0.250000
vt 1.000000 0.500000
vt 1.000000 0.250000
vt 0.750000 0.125000
vt 1.000000 0.125000
vt 0.250000 0.125000
vt 0.500000 0.125000
vt 0.000000 0.125000
vt 0.000000 0.750000
vt 0.250000 0.750000
vt 0.500000 0.750000
vt 0.750000 0.750000
vt 1.000000 0.750000
vt 0.000000 0.000000
vt 0.250000 0.000000
vt 0.500000 0.000000
vt 0.750000 0.000000
vt 1.000000 0.000000
s 0
f 28/1/1 8/2/1 4/3/1 26/4/1
f 29/5/2 9/6/2 6/7/2 27/8/2
f 27/8/3 6/7/3 8/2/3 28/1/3
f 30/9/4 3/10/4 9/6/4 29/5/4
f 16/11/5 11/12/5 15/13/5 20/14/5
f 18/15/6 13/16/6 14/17/6 19/18/6
f 20/14/7 15/13/7 13/16/7 18/15/7
f 19/18/8 14/17/8 12/19/8 17/20/8
f 34/21/9 19/18/9 17/20/9 32/22/9
f 35/23/10 20/14/10 18/15/10 33/24/10
f 33/24/11 18/15/11 19/18/11 34/21/11
f 31/25/12 16/11/12 20/14/12 35/23/12
f 11/12/5 25/26/5 24/27/5 15/13/5
f 13/16/6 22/28/6 23/29/6 14/17/6
f 15/13/7 24/27/7 22/28/7 13/16/7
f 14/17/8 23/29/8 21/30/8 12/19/8
f 25/26/13 30/9/13 29/5/13 24/27/13
f 22/28/14 27/8/14 28/1/14 23/29/14
f 24/27/15 29/5/15 27/8/15 22/28/15
f 23/29/16 28/1/16 26/4/16 21/30/16
f 1/31/17 31/25/17 35/23/17 10/32/17
f 5/33/18 33/24/18 34/21/18 7/34/18
f 10/32/19 35/23/19 33/24/19 5/33/19
f 7/34/20 34/21/20 32/22/20 2/35/20
f 49/1/21 40/4/21 41/3/21 46/2/21
f 50/5/22 48/8/22 47/7/22 42/6/22
f 48/8/23 49/1/23 46/2/23 47/7/23
f 70/9/24 50/5/24 42/6/24 43/10/24
f 61/11/25 59/14/25 60/13/25 52/12/25
f 55/15/26 57/18/26 58/17/26 56/16/26
f 59/14/27 55/15/27 56/16/27 60/13/27
f 57/18/28 53/20/28 54/19/28 58/17/28
f 64/21/29 62/22/29 53/20/29 57/18/29
f 65/23/30 63/24/30 55/15/30 59/14/30
f 63/24/31 64/21/31 57/18/31 55/15/31
f 36/25/32 65/23/32 59/14/32 61/11/32
f 52/12/25 60/13/25 69/27/25 51/26/25
f 56/16/26 58/17/26 68/29/26 67/28/26
f 60/13/27 56/16/27 67/28/27 69/27/27
f 58/17/28 54/19/28 66/30/28 68/29/28
f 51/26/33 69/27/33 50/5/33 70/9/33
f 67/28/34 68/29/34 49/1/34 48/8/34
f 69/27/35 67/28/35 48/8/35 50/5/35
f 68/29/36 66/30/36 40/4/36 49/1/36
f 37/31/37 44/32/37 65/23/37 36/25/37
f 45/33/38 38/34/38 64/21/38 63/24/38
f 44/32/39 45/33/39 63/24/39 65/23/39
f 38/34/40 39/35/40 62/22/40 64/21/40
f 8/2/41 6/7/41 47/7/41 46/2/41
f 30/9/42 25/26/42 51/26/42 70/9/42
f 2/35/43 32/22/43 62/22/43 39/35/43
f 25/26/42 11/12/42 52/12/42 51/26/42
f 17/20/43 12/19/43 54/19/43 53/20/43
f 3/10/42 30/9/42 70/9/42 43/10/42
f 5/33/44 7/34/44 38/34/44 45/33/44
f 11/12/42 16/11/42 61/11/42 52/12/42
f 31/25/42 1/31/42 37/31/42 36/25/42
f 4/3/45 8/2/45 46/2/45 41/3/45
f 32/22/43 17/20/43 53/20/43 62/22/43
f 7/34/46 2/35/46 39/35/46 38/34/46
f 12/19/43 21/30/43 66/30/43 54/19/43
f 26/4/43 4/3/43 41/3/43 40/4/43
f 6/7/47 9/6/47 42/6/47 47/7/47
f 21/30/43 26/4/43 40/4/43 66/30/43
f 9/6/48 3/10/48 43/10/48 42/6/48
f 1/31/49 10/32/49 44/32/49 37/31/49
f 10/32/50 5/33/50 45/33/50 44/32/50
f 16/11/42 31/25/42 36/25/42 61/11/42
